<?xml version="1.0" encoding="utf-8"?>
<!-- Generator: Adobe Illustrator 24.0.2, SVG Export Plug-In . SVG Version: 6.00 Build 0)  -->
<svg version="1.1" id="Layer_1" xmlns="http://www.w3.org/2000/svg" xmlns:xlink="http://www.w3.org/1999/xlink" x="0px" y="0px"
	 viewBox="0 0 640 480" style="enable-background:new 0 0 640 480;" xml:space="preserve">
<style type="text/css">
	.st0{fill:#FE484E;}
	.st1{fill:#EA4150;}
	.st2{fill:#FED4B2;}
	.st3{fill:#FEFEFE;}
	.st4{fill:#FEB889;}
	.st5{fill:#8FA6BA;}
	.st6{fill:#EAE5EE;}
	.st7{fill:#B8CBD2;}
	.st8{fill:#8696B1;}
	.st9{fill:#FEC02E;}
	.st10{fill:#EABFAA;}
	.st11{fill:#A65436;}
	.st12{fill:#FDFDFD;}
	.st13{fill:#91DCEC;}
	.st14{fill:#91DDEC;}
	.st15{fill:#90DAEA;}
	.st16{fill:#FBB688;}
	.st17{fill:#FCB789;}
	.st18{fill:#A65336;}
	.st19{fill:#E9AD33;}
	.st20{fill:#E9E4EC;}
	.st21{fill:#90DCEB;}
	.st22{fill:#FCBF2E;}
	.st23{fill:#F5F5F5;}
	.st24{fill:#E8A584;}
	.st25{fill:#7B5B1B;}
	.st26{fill:#010100;}
	.st27{fill:#010101;}
	.st28{stroke:#000000;stroke-width:10;stroke-miterlimit:10;}
	.st29{fill:none;}
</style>
<g>
	<path d="M349.06,28.26c6.88,1.7,13.27,4.37,17.48,10.41c6.19,8.88,7.63,18.41,3.52,28.66c-1.76,4.39-4.6,7.88-7.86,11.16
		c-5.63,5.67-11.36,11.26-16.75,17.16c-3.24,3.55-6.37,7.21-9.85,10.52c-4.06,3.86-9.39,4.01-13.28,0.01
		C311.91,95.48,301.2,85,291.57,73.62c-7.06-8.34-7.94-18.45-3.69-28.86c3.96-9.7,11.54-14.42,21.29-16.51c2.25,0,4.51,0,6.76,0
		c4,0.48,7.89,1.28,11.26,3.7c1,0.71,2.15,0.7,3.17,0.03c3.43-2.26,7.27-3.21,11.27-3.73C344.1,28.26,346.58,28.26,349.06,28.26z"/>
	<path d="M318.48,253.36c2.42-11.43,4.72-22.53,7.16-33.6c0.3-1.35-0.09-2.09-0.93-2.94c-2.75-2.78-4.08-6.23-4.04-10.06
		c0.06-6.21-1.44-12.66,2.37-18.4c0.79-1.19-0.33-1.59-0.91-2.14c-8.36-7.93-8.67-21.63-0.55-28.81c1.39-1.23,1.14-2.54,0.91-3.97
		c-2.45-14.96,9.59-25.98,24.33-22.09c2.2,0.58,2.89-0.67,3.8-1.8c7.24-9.01,16.82-13.99,28.03-15.81
		c14.7-2.39,28.25,0.95,39.3,10.89c10.85,9.77,17.56,22.08,17.73,37.19c0.07,6.17,2.33,11.88,3.42,17.83
		c0.33,1.81,2.1,2.14,3.41,2.69c6.93,2.91,10.24,8.09,10.15,15.53c-0.04,3.15-0.03,6.31-0.15,9.46c-0.1,2.86-0.71,5.74-2.7,7.81
		c-1.93,2.01-1.84,3.95-1.28,6.37c7.6,32.82,15.15,65.66,22.69,98.5c3.87,16.86,7.71,33.72,11.51,50.59
		c0.46,2.05,1.02,4.07,0.41,6.31c-1,3.69-3.19,5.82-6.99,6.13c-0.9,0.07-1.8,0.04-2.7,0.04c-103.56,0-207.11,0-310.67,0
		c-0.68,0-1.35,0.01-2.03-0.01c-4.8-0.15-7.77-2.37-9.08-6.96c-0.4-1.39-0.61-2.88-0.62-4.32c-0.03-34.24-0.03-68.47-0.02-102.71
		c0-7.79,2.86-14.01,10.01-17.78c2.85-1.5,5.95-1.98,9.14-1.99c6.76-0.01,13.52-0.07,20.28,0.04c1.93,0.03,2.69-0.27,2.72-2.5
		c0.11-7.71,4.11-10.07,10.96-6.71c2.92,1.43,5.87,2.83,8.75,4.34c1.74,0.91,2.49,1.23,2.75-1.45c0.61-6.24-0.65-10.48-6.88-14.02
		c-10.75-6.1-17.23-16.2-20.76-28.02c-0.71-2.39-1.72-3.31-4.38-3.3c-10.44,0.05-16.53-6.15-16.64-16.54
		c-0.03-2.59-0.06-5.18,0.01-7.77c0.22-9.2,5.84-15.35,14.99-15.77c3.03-0.14,3.33-1.19,3.32-3.74
		c-0.08-11.48-0.22-22.98,0.19-34.45c0.3-8.45,4.89-14.6,11.89-19.28c6.07-4.06,12.71-4.35,19.55-4.11
		c1.73,0.06,3.19-0.11,4.52-1.57c4.74-5.16,10.76-7.65,17.72-7.69c13.75-0.07,27.5-0.1,41.24,0c6.88,0.05,10.52,3.9,10.53,10.83
		c0.03,18.92,0.06,37.84-0.05,56.76c-0.01,2.44,0.49,3.11,3.08,3.23c9.31,0.41,15.1,6.65,15.23,15.91c0.04,2.59,0.02,5.18,0,7.77
		c-0.08,10-6.15,16.38-16.09,16.41c-2.98,0.01-4.15,0.82-5.06,3.72c-4.19,13.45-12.45,23.77-24.95,30.48
		c-1.96,1.05-2.83,2.23-2.54,4.44c0.39,2.94-1.33,7.11,0.75,8.51c1.69,1.14,5-2.08,7.67-3.2c1.45-0.61,2.81-1.41,4.24-2.07
		c5.33-2.44,9.76,0.08,9.63,5.93c-0.08,3.47,1.1,4.04,4.18,3.89c5.17-0.26,10.37,0.03,15.55-0.1
		C308.22,249.12,313.64,249.54,318.48,253.36z"/>
	<path class="st0" d="M306.45,39.72c6.28-2.58,12.26-1.3,16.73,3.6c4.22,4.62,7.85,4.82,11.69-0.34c4.16-5.59,16.75-5.93,21.49,0.04
		c7.72,9.71,8.06,16.49,0.25,26.04c-6.27,7.67-13.6,14.31-20.53,21.33c-1.49,0.99-2.32-0.28-3.13-1.06
		c-6.12-5.8-11.95-11.89-17.4-18.31c-1.61-1.89-3.38-3.6-5.04-5.43c-6.05-6.65-8.09-14.32-5.78-23.08
		C305.02,41.38,305.42,40.36,306.45,39.72z"/>
	<path class="st1" d="M306.45,39.72c-3.59,10.13-1.71,18.88,5.93,26.68c7.04,7.19,13.39,15.05,20.75,21.95
		c0.87,0.82,1.51,2.02,2.95,2.04c-1.85,1.96-3.73,3.88-5.53,5.88c-1.22,1.36-2.14,1.1-3.32-0.11c-8.1-8.28-16.41-16.36-24.31-24.82
		c-4.28-4.59-8.14-9.68-7.27-16.69C296.5,47.67,300.2,42.78,306.45,39.72z"/>
	<path class="st2" d="M217.9,125.72c6.61-2.21,13.49-2.36,20.34-2.42c5.73-0.05,11.55,0.04,17.09,1.62
		c6.2,1.77,12.27,4.09,17.26,8.39c5.44,4.68,7.96,10.92,8.11,17.9c0.25,12.03,0.79,24.13-0.09,36.11
		c-2.04,27.92-26.74,46.16-53.09,39.53c-0.31-0.08-0.58-0.3-0.88-0.46c-15.44-9.15-22.07-23.5-23.08-40.65
		c-0.66-11.09-0.31-22.25-0.06-33.37c0.2-8.7,3.03-16.5,9.37-22.8C214.39,128.06,216.65,127.56,217.9,125.72z"/>
	<path class="st2" d="M356.49,178.24c5.6-0.5,11.25,0,16.83-1.08c7.88-1.52,15.03-4.62,21.28-9.64c1.38-1.11,2.28-1.23,3.71-0.08
		c7.3,5.83,15.66,9.15,24.94,10.15c1.16,0.13,2.24,0.11,2.24,1.78c0,13.16,0.96,26.34-0.62,39.47c-0.24,1.99-0.85,3.97-1.57,5.84
		c-1.22,3.18-0.59,5.68,2.18,7.66c-1.37,4.84-3.74,8.98-8.22,11.63c-2.94-2.39-5.67-1.69-8.55,0.3c-9.01,6.23-18.96,8.26-29.73,6.29
		c-0.53-0.1-1.02-0.4-1.53-0.6c-11.37-5.81-16.97-15.94-20.41-27.56c-1.27-4.3-1.59-8.81-1.53-13.35c0.12-8.76,0.02-17.53,0.04-26.3
		C355.55,181.19,355.35,179.57,356.49,178.24z"/>
	<path class="st3" d="M365.96,310.72c7.5-0.44,13.51,3.9,15.39,11.22c0.71,2.76,2.06,4.86,5.12,4.94c3.05,0.08,4.56-1.91,5.32-4.68
		c2.18-7.98,8.48-12.35,16.56-11.57c7.57,0.73,13.18,6.61,13.71,14.55c0.21,3.13,0.07,6.29,0.13,9.44c0.05,2.95,1.02,5.29,4.22,6.04
		c1.47,0.32,1.93,1.42,1.99,2.73c0.16,3.24,0.16,6.48,0,9.72c-0.07,1.32-0.53,2.41-2,2.73c-3.04,0.7-4.12,2.89-4.2,5.72
		c-0.08,2.81-0.12,5.63,0.02,8.44c0.08,1.74-0.39,2.29-2.21,2.28c-20.04-0.1-40.08-0.12-60.11-0.15c-1.14-1.17-1.03-2.68-1.03-4.12
		c-0.02-13.89-0.15-27.79,0.05-41.68C359,320.23,360.62,314.57,365.96,310.72z"/>
	<path class="st4" d="M426.4,355.84c0.38-0.64,1.15-1.04,1.03-1.96c-0.55-4.39,1.18-8.96-1.03-13.22c4.4-0.26,5.89-1.67,5.9-5.97
		c0.02-7.4,0.47-14.8-3.49-21.67c-8.11-14.09-28.25-17.04-39.73-5.5c-1.94,1.95-2.88,2.04-4.93,0.06
		c-7.59-7.31-16.67-9.15-26.48-5.55c-9.26,3.4-14.82,10.27-16.35,20.12c-0.36,2.32-0.42,4.71-0.43,7.07
		c-0.04,13.51-0.12,27.02,0.06,40.52c0.04,3.07-1.69,2.53-3.4,2.49c-1.61-0.04-3.52,0.81-3.5-2.35c0.14-18.35-0.22-36.7,0.17-55.04
		c0.39-18.11,13.8-33.16,33.5-32.53c2.14,0.07,4.28,0.1,6.42-0.02c3.56-0.2,5.35-2,5.43-5.56c0.1-4.39,0.14-8.78-0.01-13.17
		c-0.08-2.19,0.63-2.61,2.72-2.42c2.9,0.27,5.87,0.3,8.76,0c2.29-0.24,2.65,0.58,2.58,2.56c-0.13,3.82-0.05,7.65-0.04,11.48
		c0.02,5.59,1.59,7.12,7.3,7.13c4.84,0.01,9.65-0.06,14.43,1.08c14.4,3.42,23.9,18.27,23.77,32.6c-0.09,10.13-0.02,20.26-0.02,30.39
		c0,7.43-0.16,14.86,0.08,22.28c0.1,2.98-0.69,3.73-3.66,3.7c-2.81-0.02-3.42-0.96-3.22-3.47c0.19-2.35,0.08-4.73,0.03-7.09
		C432.23,357.53,430.78,356.09,426.4,355.84z"/>
	<path class="st3" d="M417.26,243.96c3.44-3.38,5.75-7.56,8.22-11.63c4.96,0.48,6-0.43,7.98-5.63c0.68-1.79-0.46-5.18,3.06-5.02
		c3.5,0.15,2.49,3.54,2.93,5.43c9.35,40.25,18.55,80.54,27.75,120.83c1.82,7.98,3.55,15.99,5.39,24.3c-7.27,0-14.44-0.06-21.62,0.03
		c-2.36,0.03-1.72-1.55-1.72-2.75c-0.02-17.79,0.08-35.58-0.05-53.37c-0.1-14.77-5.35-27.19-17.55-36.11
		c-7.41-5.41-15.78-8.05-24.96-7.81c-2.32,0.06-2.88-0.52-3.05-2.9c-0.46-6.75-0.47-12.93,7.97-14.87c1.13-0.26,2.09-1.29,3.11-1.98
		C418.53,249.9,419.01,248.3,417.26,243.96z"/>
	<path class="st5" d="M192.14,260.64c-4.93,5.97-10.4,11.44-15.85,16.93c-4.9,4.94-4.65,9.13-0.06,14.38
		c4.52,5.17,9.52,9.82,14.35,14.65c1.23,1.23,1.37,1.94,0.03,3.17c-2.83,2.58-5.55,5.27-8.23,8.01c-4.27,4.37-4.13,9.7,0.3,13.95
		c2.52,2.41,5.11,4.75,7.63,7.16c10.96,10.47,21.91,20.96,32.86,31.44c0.46,0.44,0.89,0.92,1.74,1.81c-18.48,0-36.42,0-54.36,0
		c-1.24-1.27-1.09-2.91-1.09-4.46c-0.03-33.31-0.03-66.63-0.01-99.94c0-1.24,0.03-2.48,0.32-3.69c0.78-3.29,2.01-4.29,5.39-4.3
		c4.84-0.02,9.69-0.04,14.53,0.03C190.53,259.78,191.79,259.08,192.14,260.64z"/>
	<path class="st5" d="M283.13,259.45c8.36,0,16.12-0.21,23.85,0.07c5.91,0.21,9.05,4.89,7.74,11.29
		c-3.14,15.3-6.45,30.56-9.71,45.83c-3.77,17.69-7.59,35.38-11.27,53.09c-0.4,1.94-1.06,2.57-3.04,2.56
		c-12.95-0.08-25.9-0.04-38.88-0.04c-0.28-1.26,0.82-1.53,1.38-2.06c6.46-6.12,13.24-11.93,19.38-18.34
		c6.77-7.07,14.17-13.45,21.12-20.31c4.28-4.22,4.36-9.4,0.16-13.68c-2.6-2.65-5.22-5.3-7.97-7.79c-1.47-1.32-1.72-2.1-0.13-3.64
		c4.92-4.75,9.88-9.44,14.39-14.62c4.39-5.04,4.59-9.32-0.14-14.15C294.38,271.89,288.56,266.31,283.13,259.45z"/>
	<path class="st6" d="M329.97,292.47c-2.15,5.37-4.87,10.53-5.57,16.43c-0.36,3.03-0.41,6.04-0.41,9.07
		c-0.01,17.18,0.02,34.36-0.02,51.54c0,0.85,0.65,2-0.62,2.61c-1.14-1.19-0.98-2.7-0.98-4.14c-0.02-12.36-0.04-24.71,0-37.07
		c0.01-2.18,0.4-4.33,0.63-5.88c0.06-1.07-0.71-0.47-0.3-0.65c0.13-0.06,0.19,0.03,0.17,0.26c-0.15,3.02-0.56,6-1.23,8.94
		c-2.49,10.95-4.57,21.99-7.03,32.95c-0.44,1.95-0.56,4.04-2.06,5.61c-2.91,0-5.82,0-8.91,0c2.39-11.37,4.71-22.58,7.1-33.77
		c7.06-33.06,14.16-66.12,21.23-99.19c1.08-5.05,2.01-10.13,3.12-15.18c0.2-0.92-0.06-2.34,1.72-2.42c1.76-0.08,1.9,1.02,2.29,2.26
		c0.97,3.09,2.1,6.13,3.17,9.19c0.12,3.5-0.64,6.9-1.43,10.26c-3.28,13.96-5.85,28.07-9.01,42.06
		C331.29,287.76,330.41,290.05,329.97,292.47z"/>
	<path class="st7" d="M258.42,312.2c4.62,0.13,5.58-0.5,7.06-5.02c2.38-7.25,4.74-14.5,6.97-21.79c0.52-1.7,0.93-2.22,2.94-1.78
		c4.16,0.92,6.97-1.38,7.5-5.59c0.09-0.74,0.15-1.48,1.03-2.81c2.63,2.84,5.23,5.72,7.91,8.52c1.13,1.18,0.15,1.74-0.52,2.44
		c-4.69,4.82-9.35,9.67-14.09,14.45c-5.34,5.38-5.39,9.73,0,15.05c2.54,2.51,5,5.1,7.33,7.81c1.14,1.32,0.92,1.92-0.2,2.94
		c-3.91,3.57-7.78,7.18-11.6,10.84c-6.96,6.68-13.86,13.43-20.82,20.11c-0.77,0.74-1.35,1.85-3.07,1.89
		c1.9-6.09,3.74-12.04,5.6-17.99c0.61-1.93,1.3-3.83,1.91-5.75c1.68-5.32,0.12-7.65-5.4-8.04c2.96-2.13,3.42-5.5,4.45-8.64
		C256.22,316.54,256.38,313.93,258.42,312.2z"/>
	<path class="st7" d="M226.13,359.09c-2.86-2.65-6-5.02-8.46-7.95c-3.77-4.5-8.31-8.15-12.47-12.2c-4.27-4.16-8.61-8.25-13.06-12.22
		c-1.58-1.41-1.42-2.11-0.08-3.69c2.39-2.82,5.03-5.38,7.59-8.02c4.5-4.63,4.56-9.28-0.18-13.79c-5.52-5.26-10.14-11.37-15.96-16.27
		c3.19-3.16,6.2-6.14,9.22-9.14c0.69,0.66,0.41,1.63,0.57,2.46c0.86,4.28,3.45,6.31,7.73,5.31c1.96-0.46,2.22,0.29,2.67,1.7
		c7.56,23.7,15.16,47.4,22.74,71.09C226.69,357.1,227.05,357.85,226.13,359.09z"/>
	<path class="st8" d="M192.14,260.64c-6.22-1.24-12.49-0.5-18.73-0.39c-1.84,0.03-2.13,2.41-2.71,3.94c-0.3,0.8-0.14,1.78-0.14,2.67
		c0,35.09,0,70.18,0.01,105.28c-9.39,0.46-9.39,0.46-9.39-8.88c0-30.72,0-61.45,0-92.17c0-1.57,0.05-3.12,0.38-4.69
		c0.9-4.4,3.21-6.78,7.76-6.9c7.31-0.2,14.64-0.09,21.96-0.06C191.82,259.44,193.71,258.93,192.14,260.64z"/>
	<path class="st3" d="M329.97,292.47c-0.89-2.84,0.49-5.47,1.03-8.09c3.09-15,6.46-29.95,9.7-44.92c0.47-2.16,0.28-4.46,1.56-6.42
		c3.59,7.07,8.06,13.42,14.54,18.2c3.36,2.48,6.83,4.73,10.75,6.22c1.47,0.56,2.01,1.42,1.95,3.01c-0.12,3.15-0.12,6.3,0,9.45
		c0.06,1.71-0.39,2.33-2.23,2.31C351.09,272.01,338.79,279.06,329.97,292.47z"/>
	<path class="st3" d="M258.42,312.2c-1.11,3.64-2.34,7.24-3.28,10.92c-0.6,2.33-1.61,3.98-4.13,4.36c-2.3,0.61-3.39,2.3-4.09,4.42
		c-1.32,4-2.72,7.97-4.08,11.95c-1.62,0.8-2-0.58-2.34-1.52c-3.56-9.89-6.3-20.04-9.54-30.03c-0.25-0.77-0.13-1.55,0.45-2.2
		c3.52-0.98,4.6-3.51,4.57-6.91c-0.06-7.2-0.06-14.39,0.02-21.59c0.02-1.49-1.08-3.68,2.21-3.65c3.14,0.03,1.98,2.13,2,3.48
		c0.1,6.97,0.04,13.94,0.05,20.92c0,0.79-0.05,1.58,0.03,2.36c0.3,3.17,2.34,5.29,5.06,5.31c2.88,0.02,5-2.21,5.03-5.6
		c0.07-8.21,0.23-16.43-0.08-24.62c-0.11-2.93,1.84-5.3,3.22-5.66c3.17-0.82,5.72,2.26,8.69,3.36c0.79,0.29,1.88,0.5,1.61,1.76
		c-0.19,0.87-0.52,1.71-0.8,2.57c-2.43,7.57-4.78,15.17-7.32,22.7C254.54,307.93,255.27,310.44,258.42,312.2z"/>
	<path class="st9" d="M238.84,97.13c10.67-0.59,21.35-0.1,32.02-0.25c2.7-0.04,5.4,0.02,8.1-0.01c1.18-0.02,1.89,0.22,1.88,1.64
		c-0.04,8.95-0.02,17.9-0.02,27.73c-10.82-9.64-23.45-12.05-36.59-12.95c-2.77-0.51-5.56-0.13-8.34-0.22
		c-2.94-0.09-3.57-0.69-3.2-3.58C233.32,104.68,235.4,100.56,238.84,97.13z"/>
	<path class="st10" d="M217.9,125.72c0.02,1.04-0.69,1.64-1.42,2.16c-8.63,6.16-11.82,15.01-12.06,25.09
		c-0.24,10.13-0.17,20.27-0.03,30.4c0.24,17.07,6.73,31.11,20.67,41.37c0.64,0.47,1.37,0.78,1.58,1.64
		c-9.96-2.6-17.55-8.25-23.32-16.86c-6.3-9.4-8.3-19.64-7.96-30.69c0.27-8.87-0.04-17.75,0.16-26.62
		c0.28-12.15,6.48-20.49,17.94-24.63C214.96,127.04,216.41,126.35,217.9,125.72z"/>
	<path class="st11" d="M359.05,167.97c-2.49,0-4.4-0.01-6.32,0c-1.66,0.01-1.93-0.67-1.22-2.1c6.82-13.64,18.61-23.37,36.18-22.91
		c3.27,0.09,6.48,0.47,9.64,1.44c1.47,0.45,2.22,0.74,1.3,2.46c-6.32,11.84-16.04,18.83-29.37,20.58
		C365.7,167.92,362.09,168.26,359.05,167.97z"/>
	<path class="st6" d="M231.41,310.11c3.07,11.04,6.56,21.95,10.18,32.83c0.21,0.63,0.67,0.84,1.25,0.91
		c-1.43,4.88-2.59,9.85-4.82,15.1c-4.13-12.78-8.09-24.98-12.02-37.19c-1.85-5.75-3.66-11.52-5.49-17.28
		c-2.51-7.89-4.96-15.81-7.62-23.65c-0.65-1.91-0.43-2.87,1.45-3.58c1.88-0.72,3.67-1.64,5.5-2.47c2.86,4.49,3.74,9.68,5.2,14.66
		c0.15,0.42,0.51-0.36,0.2-0.04c-0.1,0.1-0.2,0.03-0.24-0.23c-0.7-4.08-1.37-8.16,0.3-12.18c1.09,0.88,0.51,2.09,0.52,3.12
		c0.04,7.85-0.03,15.7,0.01,23.54C225.86,308.06,227.01,309.32,231.41,310.11z"/>
	<path class="st10" d="M356.49,178.24c0,10.69-0.11,21.38,0.03,32.07c0.21,16.06,6.57,29.04,19.83,38.42
		c0.44,0.31,0.73,0.82,1.09,1.23c-8.29-1.8-14.85-6.06-20.28-12.71c-7.91-9.68-10.16-20.69-9.66-32.76
		c0.32-7.75,0.2-15.51,0.11-23.27c-0.03-2.38,0.51-3.58,3.17-3.22C352.66,178.25,354.59,178.17,356.49,178.24z"/>
	<path class="st6" d="M365.96,310.72c-2.45,3.84-5.37,7.46-5.77,12.27c-0.09,1.11-0.3,2.22-0.3,3.33c-0.02,15.27-0.01,30.54,0,45.82
		c-8.86,0.46-8.87,0.46-8.86-8.25c0-12.48-0.1-24.96,0.06-37.44c0.11-8.91,6.12-15.4,14.22-15.82
		C365.52,310.6,365.74,310.68,365.96,310.72z"/>
	<path class="st3" d="M378.13,124.3c9.16-2.19,17.77-1.18,26.02,3.67c6.63,3.9,12.19,8.74,16.1,15.39c0.49,0.83,1.18,1.62,1.07,2.7
		c-0.85,0.67-1.23-0.11-1.69-0.51c-15.81-13.51-33.37-16.38-52.68-8.71c-0.31,0.12-0.65,0.15-0.98,0.22
		c-0.68-1.25-0.8-1.35-0.16-2.13C369.27,130.65,372.91,126.55,378.13,124.3z"/>
	<path class="st12" d="M312.56,372.13c1.14-5.7,2.23-11.41,3.43-17.1c2.26-10.69,4.59-21.38,7.37-32.03c0,16.37,0,32.73,0,49.1
		C319.75,372.12,316.16,372.13,312.56,372.13z"/>
	<path class="st13" d="M203.27,251c6.27,3.09,12.06,5.94,17.84,8.82c1.36,0.68,1.21,1.6-0.03,2.17c-5.46,2.52-10.25,6.25-15.85,8.51
		c-1.09,0.44-1.96,0.86-1.96-0.9C203.27,263.58,203.27,257.56,203.27,251z"/>
	<path class="st14" d="M272.85,251.05c0,6.51,0,12.54,0,18.58c0,1.33-0.54,1.44-1.69,0.97c-5.7-2.33-10.63-6.06-16.17-8.7
		c-1.39-0.66-0.9-1.61,0.26-2.19C260.96,256.89,266.68,254.08,272.85,251.05z"/>
	<path class="st15" d="M232.17,261.42c0-6.06,0-6.06,5.83-6.06c6,0,6,0,6,6.26c0,6.3,0,6.3-6.03,6.3
		C232.17,267.91,232.17,267.91,232.17,261.42z"/>
	<path class="st16" d="M185.29,177.78c0,2.47-0.18,4.95,0.05,7.4c0.23,2.35-0.9,2.62-2.76,2.44c-3.5-0.33-5.3-2.07-5.41-5.61
		c-0.1-3.14-0.13-6.29,0.05-9.42c0.2-3.41,3.24-5.52,6.63-5.05c1.54,0.21,1.39,1.16,1.4,2.15c0.01,2.69,0,5.38,0,8.08
		C185.27,177.78,185.28,177.78,185.29,177.78z"/>
	<path class="st17" d="M290.97,177.54c0-2.69,0.06-5.39-0.02-8.08c-0.05-1.49,0.56-1.89,1.98-1.9c3.69-0.03,6.01,1.95,6.13,5.61
		c0.1,2.91,0.09,5.84,0.01,8.75c-0.11,3.75-2.21,5.62-6.02,5.73c-1.55,0.05-2.23-0.31-2.14-2.03c0.14-2.69,0.04-5.38,0.04-8.08
		C290.95,177.54,290.96,177.54,290.97,177.54z"/>
	<path class="st18" d="M422.17,167.19c-6.55-1.07-11.86-3.48-16.77-6.98c-1.61-1.14-1.74-2.03-0.57-3.47
		c0.77-0.94,1.33-2.01,1.8-3.18c1.58-3.96,2.43-4.26,5.31-1.14C415.91,156.73,419.92,161.11,422.17,167.19z"/>
	<path class="st19" d="M238.84,97.13c0.09,1.07-0.17,1.98-0.99,2.74c-2.92,2.69-3.51,6.42-4.35,10.01
		c-0.43,1.86,0.21,2.87,2.45,2.87c2.76,0,5.59-0.64,8.28,0.54c-6.03,0.03-12.08-0.34-18.09,0.48c-1.68,0.23-1.52-0.78-1.51-1.8
		c0.01-2.99,0.83-5.79,2.61-8.16C230.13,99.96,233.86,97.41,238.84,97.13z"/>
	<path class="st19" d="M205.02,119.48c-3.05,1.85-6.19,3.57-8.75,6.11c-1.95-1.33-0.83-3.16-0.8-4.82
		c0.48-8.99,7.49-14.91,18.28-14.01c1.66,0.14,1.36,1.07,0.86,2.09c-2.71-1.32-4.58-0.37-6.16,2.03
		C206.7,113.54,205.9,116.52,205.02,119.48z"/>
	<path class="st16" d="M442.46,201.46c-0.09,2.85,0.55,5.75-1.66,8.33c-1.24,1.45-2.58,1.89-4.08,1.59
		c-1.77-0.36-0.87-2.07-0.9-3.14c-0.1-4.61,0.13-9.23-0.09-13.84c-0.15-3.14,1.49-3.11,3.52-2.35c1.9,0.71,3.13,2.19,3.19,4.35
		C442.5,198.08,442.46,199.77,442.46,201.46z"/>
	<path class="st16" d="M337.44,201.42c0,2.48,0.02,4.95-0.01,7.43c-0.03,2.61-1.5,3.4-3.83,2.17c-0.79-0.42-1.09-1.14-1.44-1.78
		c-2.63-4.86-1.74-9.96-0.68-14.98c0.3-1.42,1.83-2.16,3.38-2.46c1.84-0.35,2.73,0.1,2.6,2.2c-0.16,2.47-0.04,4.95-0.04,7.43
		C337.43,201.42,337.43,201.42,337.44,201.42z"/>
	<path class="st4" d="M233.61,239c5.08-0.15,10.25,0.68,15.09-1.76c1.16-0.59,1.83,0.05,1.78,1.45c-0.07,2.33-0.02,4.67-0.02,7.09
		c-6.08-1.12-11.91-0.18-17.7-0.68C231.21,241.87,231.4,240.51,233.61,239z"/>
	<path class="st20" d="M378.13,124.3c-4.27,3.47-8.68,6.81-11.89,11.39c-0.29,0.41-0.91,0.78-0.27,1.38
		c-4.91,2.71-9.64,5.7-14.01,9.31C357.26,134.89,366.19,127.8,378.13,124.3z"/>
	<path class="st12" d="M325.75,170.78c0.18-1.22,0.36-2.41,0.89-3.58c0.99-2.2,2.13-3.13,4.12-1.02c0.23,0.24,0.58,0.35,0.82,0.59
		c1.33,1.31,4.55,0.65,4.49,2.82c-0.1,3.31-1.22,6.6-2,9.88c-0.25,1.04-1.07,0.41-1.66,0.3
		C328.59,179.06,325.67,175.11,325.75,170.78z"/>
	<path class="st21" d="M342.72,140.75c-2.66,5.53-4.37,11.29-5.02,17.4c-4.12-1.86-6.41-6.9-5.2-10.96
		C333.84,142.66,337.7,140.15,342.72,140.75z"/>
	<path class="st22" d="M205.02,119.48c-0.7-3.05,2.42-10.76,5.13-11.79c1.42-0.54,3.56-1.38,4.46,1.17
		c-0.18,6.89-0.18,6.89-6.57,9.32C207.01,118.57,206.02,119.05,205.02,119.48z"/>
	<path class="st23" d="M225.31,276.99c0,4.47,0,8.94,0,13.4c-2.17-5.12-4.33-10.19-5.45-15.62
		C223.23,271.68,223.61,275.97,225.31,276.99z"/>
	<path class="st24" d="M233.61,239c-1.64,1.85-0.54,4.07-0.84,6.11c-1.55,0.08-3.21-0.15-4.63,0.32c-2.52,0.84-2.52-0.5-2.43-2.24
		c0.09-1.88-0.55-4.22,0.35-5.53c1.34-1.96,2.88,1.1,4.64,0.86C231.62,238.38,232.63,238.82,233.61,239z"/>
	<path class="st25" d="M195.47,120.78c0.61,1.55-0.52,3.39,0.8,4.82c-0.18,0.78-0.68,1.94-1.09,0.4
		C194.73,124.38,194.57,122.47,195.47,120.78z"/>
	<path d="M241.53,185.83c-6.37-0.02-9.27-2.8-9.46-9.16c-0.07-2.36-0.07-4.72,0-7.08c0.11-3.41,2.11-5.55,5.05-5.55
		c2.93,0,4.88,2.12,5.06,5.57c0.06,1.23,0.05,2.47,0,3.71c-0.04,1.01,0.2,1.46,1.35,1.81c4.28,1.32,5.42,3.07,4.75,6.7
		C247.78,184.65,245.77,185.85,241.53,185.83z"/>
	<path class="st26" d="M220.94,164.34c-0.01,6.46-1.56,8.93-5.01,8.99c-3.48,0.06-5.15-2.47-5.15-7.86c0-1.23-0.03-2.47,0.12-3.69
		c0.38-3.02,2.36-4.95,5.05-4.76c2.81,0.19,4.55,1.72,4.85,4.62C220.92,162.86,220.93,164.1,220.94,164.34z"/>
	<path class="st27" d="M265.35,165.26c0,0.9,0.05,1.8-0.01,2.69c-0.19,3.23-2.08,5.4-4.87,5.34c-3.01-0.06-4.81-1.82-5.12-4.75
		c-0.24-2.21-0.24-4.49-0.01-6.71c0.33-3.15,2.61-5.13,5.37-4.8c3,0.36,4.55,2.17,4.63,5.2
		C265.37,163.25,265.35,164.26,265.35,165.26z"/>
	<path class="st27" d="M388.97,209.39c-3.1-0.08-5.87-1.03-7.26-3.96c-1.53-3.24-1.69-6.74-0.18-10.04c0.87-1.9,2.73-2.52,4.82-2.29
		c1.98,0.22,3.48,1.28,3.94,3.14c0.5,2.01,1.28,3.49,3.07,4.76c1.63,1.16,1.82,3.28,1.01,5.22
		C393.38,208.58,391.42,209.43,388.97,209.39z"/>
	<path class="st27" d="M371.35,190.86c0,0.78,0.05,1.57,0,2.35c-0.24,3.18-2.19,5.27-4.96,5.33c-2.88,0.07-4.99-2.12-5.15-5.46
		c-0.08-1.67-0.08-3.36,0.01-5.03c0.17-3.2,2.12-5.22,4.93-5.28c2.82-0.06,4.88,1.94,5.15,5.07
		C371.42,188.84,371.34,189.85,371.35,190.86z"/>
	<path class="st27" d="M411.93,190.78c0.05,5.34-1.66,7.88-5.15,7.75c-3.39-0.12-4.95-2.54-4.94-7.73c0-1.23-0.09-2.49,0.14-3.68
		c0.53-2.75,2.23-4.41,5.11-4.31c2.86,0.1,4.49,1.79,4.82,4.61C412.04,188.53,411.93,189.66,411.93,190.78z"/>
</g>
<line x1="222.07" y1="207.32" x2="225.57" y2="204.59"/>
<path class="st28" d="M219,203"/>
<path d="M252.62,199h-28.23c-1.32,0-2.38,1.07-2.38,2.38v1.23c0,1.32,1.07,2.38,2.38,2.38h28.23c1.32,0,2.38-1.07,2.38-2.38v-1.23
	C255,200.07,253.93,199,252.62,199z"/>
<path d="M401.62,223h-25.23c-1.32,0-2.38,1.07-2.38,2.38v1.23c0,1.32,1.07,2.38,2.38,2.38h25.23c1.32,0,2.38-1.07,2.38-2.38v-1.23
	C404,224.07,402.93,223,401.62,223z"/>
<rect x="111.5" y="394.75" class="st29" width="219.5" height="39.25"/>
</svg>
